<svg width="59" height="66" viewBox="0 0 59 66" fill="none" xmlns="http://www.w3.org/2000/svg">
<rect x="0.5" y="1.41113" width="57.1045" height="57.1045" stroke="#BEA77E"/>
<rect x="0.203125" y="27.0254" width="56.7988" height="31.3373" fill="url(#paint0_linear_7_4)" fill-opacity="0.4"/>
<g opacity="0.85">
<path d="M15.7069 24.3496C15.962 24.3496 16.1778 24.2621 16.3544 24.087C16.5407 23.9022 16.6388 23.6833 16.6486 23.4303V15.3026C16.6192 14.9622 16.4574 14.7092 16.1631 14.5439C16.0159 14.466 15.8639 14.4271 15.7069 14.4271H15.5156V14.2812H19.6504C20.082 14.2812 20.4597 14.2472 20.7834 14.1791C21.1072 14.111 21.3181 14.0575 21.4162 14.0186V16.5721H21.2543V16.397C21.2641 15.9593 21.1366 15.6091 20.8717 15.3464C20.6167 15.074 20.2684 14.9281 19.827 14.9087H18.8558V19.1549H21.1954C21.5584 19.1452 21.8576 19.0236 22.093 18.7901C22.3285 18.5469 22.4462 18.2502 22.4462 17.9V17.7687H22.5786V21.1394H22.4462V21.0227C22.4462 20.6627 22.3285 20.366 22.093 20.1326C21.8576 19.8991 21.5633 19.7775 21.2102 19.7678H18.8558V23.8681H21.7252C22.4413 23.8681 23.0397 23.6638 23.5203 23.2552C24.0108 22.8467 24.3738 22.2679 24.6092 21.5188H24.7564L24.0648 24.4956H15.5156V24.3496H15.7069Z" fill="white"/>
<path d="M34.5325 27.2189H34.7385V27.3648H29.7209V27.2189H29.9122C30.1182 27.2189 30.2849 27.1216 30.4125 26.9271C30.4713 26.82 30.5008 26.7179 30.5008 26.6206C30.5008 26.5233 30.4713 26.4261 30.4125 26.3288L28.3671 23.1623L25.5125 27.1897C24.355 28.8045 23.0846 29.612 21.7015 29.612C21.4955 29.612 21.2845 29.5925 21.0687 29.5536V29.4077C21.932 29.3299 22.6726 28.9651 23.2906 28.3133C23.5849 28.002 23.9381 27.5691 24.3501 27.0146L27.7933 22.2868L25.1005 18.1573C24.8749 17.8168 24.5757 17.5688 24.2029 17.4131C24.0067 17.3353 23.8105 17.2964 23.6143 17.2964H23.4083V17.1505H28.4113V17.2964H28.22C28.014 17.2964 27.8472 17.3937 27.7197 17.5882C27.6608 17.6952 27.6314 17.8022 27.6314 17.9093C27.6314 18.0065 27.6559 18.0989 27.705 18.1865L29.5149 20.9444L32.0752 17.2088C33.1935 15.5843 34.4492 14.772 35.8421 14.772C35.9599 14.772 36.0825 14.7768 36.21 14.7866V14.9325C35.4056 14.952 34.6012 15.5016 33.7968 16.5814C33.6791 16.7273 33.5614 16.883 33.4437 17.0483C33.3358 17.2137 33.2671 17.311 33.2377 17.3402L30.1035 21.8491L33.0464 26.3726C33.2131 26.6158 33.429 26.82 33.6938 26.9854C33.9685 27.1411 34.2481 27.2189 34.5325 27.2189Z" fill="white"/>
<path d="M38.3206 25.9548C38.4874 26.3439 38.8307 26.5384 39.3506 26.5384C39.9392 26.5384 40.4101 26.2466 40.7632 25.6629C41.0085 25.2641 41.1311 24.7582 41.1311 24.1454C41.1311 23.2407 40.8907 22.5792 40.4101 22.1609C40.0471 21.8496 39.5861 21.6939 39.0269 21.6939C38.8994 21.6939 38.7669 21.7036 38.6296 21.7231L37.6437 21.869V30.4345C37.6437 30.6971 37.7369 30.916 37.9233 31.0911C38.1097 31.2662 38.3304 31.3538 38.5855 31.3538H38.7768V31.4997H34.3036V31.3538H34.4948C34.7499 31.3538 34.9657 31.2662 35.1423 31.0911C35.3287 30.916 35.4268 30.6971 35.4366 30.4345V22.657C35.4268 22.4041 35.3483 22.2046 35.2011 22.0587C35.0638 21.9128 34.8578 21.8398 34.5831 21.8398C34.5145 21.8398 34.4262 21.8447 34.3183 21.8544L34.2888 21.7231C35.1227 21.655 35.9957 21.5431 36.908 21.3875C37.8301 21.2221 38.4334 21.12 38.7179 21.081C39.0122 21.0421 39.3065 21.0227 39.6008 21.0227C39.9049 21.0227 40.2678 21.0567 40.6896 21.1248C41.1115 21.1832 41.5431 21.3242 41.9845 21.548C42.426 21.762 42.784 22.083 43.0587 22.5111C43.3432 22.978 43.4854 23.5082 43.4854 24.1016C43.4854 24.6853 43.3775 25.2008 43.1617 25.6483C42.7497 26.5044 42.0434 27.0491 41.0428 27.2826C40.7976 27.341 40.5621 27.3702 40.3365 27.3702C40.1207 27.3702 39.9147 27.3507 39.7185 27.3118C39.3163 27.2534 38.9779 27.1172 38.7032 26.9032C38.4285 26.6892 38.2568 26.3925 38.1882 26.0131L38.3206 25.9548Z" fill="white"/>
</g>
<defs>
<linearGradient id="paint0_linear_7_4" x1="28.6025" y1="27.0254" x2="28.6025" y2="58.3627" gradientUnits="userSpaceOnUse">
<stop stop-color="#070F1D" stop-opacity="0"/>
<stop offset="1" stop-color="#364D89"/>
</linearGradient>
</defs>
</svg>
